<?xml version="1.0" standalone="no"?>
<!DOCTYPE svg PUBLIC "-//W3C//DTD SVG 20010904//EN"
 "http://www.w3.org/TR/2001/REC-SVG-20010904/DTD/svg10.dtd">
<svg version="1.0" xmlns="http://www.w3.org/2000/svg"
 width="132.000000pt" height="132.000000pt" viewBox="0 0 132.000000 132.000000"
 preserveAspectRatio="xMidYMid meet">

<g transform="translate(0.000000,132.000000) scale(0.100000,-0.100000)"
fill="#000000" stroke="none">
<path d="M590 1239 c-278 -37 -490 -277 -491 -554 0 -65 16 -175 25 -175 2 0
23 7 47 15 l45 16 -4 112 c-4 96 -1 121 18 176 70 209 277 335 498 302 197
-29 347 -176 384 -373 l13 -68 51 0 52 0 -5 43 c-35 314 -328 548 -633 506z"/>
<path d="M555 1066 c-126 -42 -195 -100 -251 -213 -37 -74 -39 -82 -39 -173 1
-87 4 -101 34 -162 42 -87 111 -157 197 -199 62 -31 75 -34 164 -34 93 0 100
2 173 39 92 46 147 102 190 194 29 61 32 76 32 163 0 89 -2 99 -37 170 -20 40
-51 88 -68 104 l-32 30 -33 -40 -33 -39 30 -35 c47 -53 68 -113 68 -191 0
-207 -195 -342 -394 -274 -69 24 -150 107 -171 176 -31 107 -12 212 55 290 51
59 130 98 200 98 55 0 56 1 63 68 l5 42 -56 -1 c-32 0 -75 -6 -97 -13z"/>
<path d="M617 919 c-189 -43 -261 -269 -130 -404 119 -122 305 -95 388 56 39
72 40 142 2 217 -49 95 -164 153 -260 131z"/>
<path d="M1045 428 c-10 -17 -40 -52 -68 -79 -138 -133 -355 -163 -526 -73
-70 36 -74 36 -112 -17 l-20 -29 48 -30 c161 -102 388 -108 565 -13 57 30 184
150 208 196 16 31 12 35 -51 63 -24 11 -28 9 -44 -18z"/>
</g>
</svg>
